<svg xmlns="http://www.w3.org/2000/svg" viewBox="0 0 1584 396" width="100%" height="100%">
  <defs>
    <linearGradient id="li-bg" x1="0%" y1="0%" x2="100%" y2="100%">
      <stop offset="0%" stop-color="#0F172A" />
      <stop offset="100%" stop-color="#1E1B4B" />
    </linearGradient>
    <linearGradient id="li-grad" x1="0%" y1="0%" x2="100%" y2="100%">
      <stop offset="0%" stop-color="#9333EA" />
      <stop offset="100%" stop-color="#06B6D4" />
    </linearGradient>
  </defs>

  <rect width="1584" height="396" fill="url(#li-bg)" />
  <circle cx="1400" cy="200" r="280" fill="#06B6D4" opacity="0.2" filter="blur(50px)" />

  <g transform="translate(360, 110)">
    <g transform="translate(0, 0)">
      <rect width="60" height="60" rx="14" fill="url(#li-grad)" />
      <g transform="translate(14, 14)">
        <path d="M20 2.5H8c-1.4 0-2.5 1.1-2.5 2.5v22c0 1.4 1.1 2.5 2.5 2.5h12c1.4 0 2.5-1.1 2.5-2.5V8L20 2.5z" stroke="#FFFFFF" stroke-width="2.5" fill="none" />
        <path d="m8.5 16 3 3 6.5-6.5" stroke="#FFFFFF" stroke-width="2.5" fill="none" />
      </g>
      <text x="80" y="42" font-family="'Nunito', sans-serif" font-weight="800" font-size="36" fill="#FFFFFF">
        Mi <tspan fill="url(#li-grad)">Pacto</tspan>
      </text>
    </g>

    <text x="0" y="115" font-family="'Nunito', sans-serif" font-weight="800" font-size="30" fill="#FFFFFF">
      Gestión Inteligente de Contratos &amp; Conciliación Bancaria SPEI
    </text>
    <text x="0" y="155" font-family="'Nunito', sans-serif" font-weight="600" font-size="18" fill="#94A3B8">
      Seguridad jurídica con firma digital OTP, sellado SHA-256 y cumplimiento SAT.
    </text>
  </g>
</svg>
